<svg xmlns="http://www.w3.org/2000/svg" width="320" height="320" viewBox="0 0 320 320"><g fill="#d4af37" fill-opacity=".12"><circle cx="20" cy="20" r="2"/><circle cx="60" cy="20" r="2"/><circle cx="100" cy="20" r="2"/><circle cx="140" cy="20" r="2"/><circle cx="180" cy="20" r="2"/><circle cx="220" cy="20" r="2"/><circle cx="260" cy="20" r="2"/><circle cx="300" cy="20" r="2"/><circle cx="40" cy="60" r="2"/><circle cx="80" cy="60" r="2"/><circle cx="120" cy="60" r="2"/><circle cx="160" cy="60" r="2"/><circle cx="200" cy="60" r="2"/><circle cx="240" cy="60" r="2"/><circle cx="280" cy="60" r="2"/><circle cx="320" cy="60" r="2"/><circle cx="20" cy="100" r="2"/><circle cx="60" cy="100" r="2"/><circle cx="100" cy="100" r="2"/><circle cx="140" cy="100" r="2"/><circle cx="180" cy="100" r="2"/><circle cx="220" cy="100" r="2"/><circle cx="260" cy="100" r="2"/><circle cx="300" cy="100" r="2"/><circle cx="40" cy="140" r="2"/><circle cx="80" cy="140" r="2"/><circle cx="120" cy="140" r="2"/><circle cx="160" cy="140" r="2"/><circle cx="200" cy="140" r="2"/><circle cx="240" cy="140" r="2"/><circle cx="280" cy="140" r="2"/><circle cx="320" cy="140" r="2"/><circle cx="20" cy="180" r="2"/><circle cx="60" cy="180" r="2"/><circle cx="100" cy="180" r="2"/><circle cx="140" cy="180" r="2"/><circle cx="180" cy="180" r="2"/><circle cx="220" cy="180" r="2"/><circle cx="260" cy="180" r="2"/><circle cx="300" cy="180" r="2"/><circle cx="40" cy="220" r="2"/><circle cx="80" cy="220" r="2"/><circle cx="120" cy="220" r="2"/><circle cx="160" cy="220" r="2"/><circle cx="200" cy="220" r="2"/><circle cx="240" cy="220" r="2"/><circle cx="280" cy="220" r="2"/><circle cx="320" cy="220" r="2"/><circle cx="20" cy="260" r="2"/><circle cx="60" cy="260" r="2"/><circle cx="100" cy="260" r="2"/><circle cx="140" cy="260" r="2"/><circle cx="180" cy="260" r="2"/><circle cx="220" cy="260" r="2"/><circle cx="260" cy="260" r="2"/><circle cx="300" cy="260" r="2"/><circle cx="40" cy="300" r="2"/><circle cx="80" cy="300" r="2"/><circle cx="120" cy="300" r="2"/><circle cx="160" cy="300" r="2"/><circle cx="200" cy="300" r="2"/><circle cx="240" cy="300" r="2"/><circle cx="280" cy="300" r="2"/><circle cx="320" cy="300" r="2"/></g></svg>
