<svg xmlns="http://www.w3.org/2000/svg" width="320" height="320" viewBox="0 0 320 320"><g fill="none" stroke="#d4af37" stroke-opacity=".13" stroke-width="2" stroke-linecap="round" stroke-linejoin="round"><ellipse cx="50" cy="50" rx="24" ry="12"/><path d="M34 46l6 8M50 44v10M66 46l-6 8"/><path d="M130 30h40l-4 26h-32z"/><path d="M140 30v-6a10 10 0 0 1 20 0v6"/><circle cx="250" cy="48" r="16"/><path d="M250 32c0-8 6-10 10-12"/><path d="M40 150h36v36H40z"/><path d="M52 150v36M64 168h12"/><path d="M150 150l20 20M170 150l-20 20M160 140v40"/><rect x="232" y="146" width="36" height="16" rx="8"/><path d="M250 146v16"/><path d="M30 260h12M34 252v16M46 252v16M50 260h12M58 252v16"/><path d="M140 250h40l-6 30h-28z"/><path d="M150 250l8-12M170 250l-8-12"/><path d="M240 240h30v40h-30zM248 254h14"/></g></svg>
